<svg fill="#b83280" height="100%" width="100%" xmlns="http://www.w3.org/2000/svg" xmlns:xlink="http://www.w3.org/1999/xlink" viewBox="7 0 86.36 100">
  <defs>
    <path id="a" d="M64.02 85.3L59.27 100l-4.75-14.7a22.7 22.7 0 00-14.64-14.64l-14.7-4.75 14.7-4.75a22.7 22.7 0 0014.64-14.64l4.75-14.7 4.75 14.7a22.7 22.7 0 0014.64 14.64l14.7 4.75-14.7 4.75A22.722 22.722 0 0064.02 85.3z"/>
  </defs>

  <use xlink:href="#a" overflow="visible"/>

  <defs>
    <path id="b" d="M27.83 46.34l-2.65 8.21-2.65-08.21c-1.12-3.47-3.85-6.2-7.32-7.32L7 36.36l8.21-2.65c3.47-1.12 6.2-3.85 7.32-7.32l2.65-8.21 2.65 8.21c1.12 3.47 3.85 6.2 7.32 7.32l8.21 2.65-8.21 2.65a11.408 11.408 0 00-7.32 7.33z"/>
  </defs>

  <use xlink:href="#b" overflow="visible"/>

  <g>
    <defs>
      <path id="c" d="M51.79 17.73l-1.61 4.99-1.61-4.99a7.387 7.387 0 00-4.76-4.76l-4.99-1.61 4.99-1.61c2.26-.73 4.03-2.5 4.76-4.76L50.18 0l1.61 4.99c.73 2.26 2.5 4.03 4.76 4.76l4.99 1.61-4.99 1.61a7.43 7.43 0 00-4.76 4.76z"/>
    </defs>
    <use xlink:href="#c" overflow="visible"/>
  </g>
</svg>
